<svg width="32" height="32" viewBox="0 0 32 32" fill="none" xmlns="http://www.w3.org/2000/svg">
<path fill-rule="evenodd" clip-rule="evenodd" d="M16 0C7.16344 0 0 7.16344 0 16C0 24.8366 7.16344 32 16 32C24.8366 32 32 24.8366 32 16C32 7.16344 24.8366 0 16 0ZM26.3931 12.3431C27.1716 13.1216 27.1716 14.3884 26.3931 15.1669L17.5 24.0607C16.7215 24.8393 15.4548 24.8393 14.6762 24.0607L5.60687 15.1669C4.82838 14.3884 4.82838 13.1216 5.60687 12.3431C6.38535 11.5646 7.65213 11.5646 8.43062 12.3431L16.0862 19.9987L23.5694 12.5155C24.3479 11.737 25.6147 11.737 26.3931 12.3431Z" fill="#000000"/>
</svg>